<?xml version="1.0" standalone="no"?>
<!DOCTYPE svg PUBLIC "-//W3C//DTD SVG 20010904//EN"
 "http://www.w3.org/TR/2001/REC-SVG-20010904/DTD/svg10.dtd">
<svg version="1.0" xmlns="http://www.w3.org/2000/svg"
 width="500.000000pt" height="500.000000pt" viewBox="0 0 500.000000 500.000000"
 preserveAspectRatio="xMidYMid meet">

<g transform="translate(0.000000,500.000000) scale(0.100000,-0.100000)"
fill="#000000" stroke="none">
<path d="M2024 4590 c8 -45 56 -94 131 -133 43 -23 65 -42 77 -67 13 -27 17
-30 18 -14 0 33 -35 70 -100 105 -32 17 -67 40 -77 51 -18 20 -17 21 7 13 l25
-7 -22 16 c-12 9 -32 29 -44 44 l-22 27 7 -35z"/>
<path d="M2265 4523 c15 -24 30 -65 35 -95 l8 -53 1 48 c1 52 -14 91 -49 122
-20 18 -20 15 5 -22z"/>
<path d="M1844 4455 c-17 -43 -19 -108 -2 -103 7 3 16 19 20 36 10 36 14 38
39 16 12 -11 23 -13 35 -6 15 8 12 14 -21 51 -20 22 -42 41 -47 41 -5 0 -16
-16 -24 -35z"/>
<path d="M2366 4395 c-65 -56 -127 -125 -113 -125 2 0 20 13 40 28 45 36 124
78 132 70 11 -11 -16 -131 -42 -182 l-25 -51 32 30 c49 46 80 115 80 178 0 65
-9 117 -21 117 -5 0 -42 -29 -83 -65z"/>
<path d="M1938 4380 c-141 -73 -274 -97 -363 -65 -22 8 -44 15 -50 15 -18 0
41 -48 86 -70 40 -19 37 -11 -8 16 -14 10 -6 11 42 7 76 -7 159 14 273 67 47
22 102 43 122 46 42 7 90 -13 114 -48 9 -12 16 -17 16 -11 0 6 -14 25 -31 42
-27 28 -37 31 -87 31 -43 -1 -71 -8 -114 -30z"/>
<path d="M2231 4334 c0 -11 3 -14 6 -6 3 7 2 16 -1 19 -3 4 -6 -2 -5 -13z"/>
<path d="M1390 4230 c0 -36 26 -85 64 -118 20 -17 42 -32 49 -32 6 0 -5 14
-26 31 -21 17 -36 33 -34 36 3 2 25 -1 51 -8 42 -10 55 -9 144 19 53 17 106
33 117 35 19 4 19 5 -1 6 -12 0 -61 -10 -108 -24 -47 -14 -98 -25 -111 -25
-45 0 -94 28 -116 65 -24 40 -29 43 -29 15z"/>
<path d="M1793 4203 c9 -2 25 -2 35 0 9 3 1 5 -18 5 -19 0 -27 -2 -17 -5z"/>
<path d="M2161 4159 c-34 -41 -92 -73 -205 -114 -75 -27 -122 -76 -145 -149
-15 -49 -20 -56 -24 -36 -4 23 -4 22 -6 -5 0 -16 8 -43 19 -60 l20 -30 0 55
c1 101 51 171 147 205 89 32 154 67 188 101 32 32 34 33 38 11 2 -12 5 -3 6
21 0 23 0 42 -1 42 -2 0 -18 -19 -37 -41z"/>
<path d="M1895 4163 c-50 -10 -115 -40 -175 -79 -84 -54 -194 -89 -261 -81
-27 3 -49 4 -49 2 0 -7 84 -53 110 -59 l25 -7 -25 15 -25 15 26 1 c48 0 134
32 188 68 100 69 141 91 203 111 45 14 54 20 33 19 -16 0 -39 -2 -50 -5z"/>
<path d="M2367 3992 c5 -45 3 -55 -21 -82 -32 -39 -33 -60 -3 -60 17 0 28 10
40 34 15 32 15 40 1 93 -19 74 -25 79 -17 15z"/>
<path d="M1578 3933 c7 -3 16 -2 19 1 4 3 -2 6 -13 5 -11 0 -14 -3 -6 -6z"/>
<path d="M3069 3927 c-20 -7 -51 -25 -70 -40 -67 -50 -139 -77 -211 -77 -81 0
-88 -8 -88 -100 0 -64 17 -102 65 -142 33 -28 122 -67 168 -74 67 -10 77 -25
77 -114 l0 -77 -38 -7 c-45 -7 -79 -39 -92 -88 -6 -19 -18 -42 -27 -51 -10 -8
-30 -27 -45 -40 -30 -28 -29 -47 11 -125 20 -39 25 -42 61 -42 59 0 118 -27
136 -63 12 -22 14 -44 9 -83 -7 -58 9 -77 22 -26 28 108 -26 183 -144 198 -29
3 -53 11 -53 17 0 6 -6 18 -14 26 -8 9 -17 28 -21 43 -6 23 -2 30 29 50 27 17
41 38 57 78 24 65 40 80 90 80 60 0 87 16 121 70 17 27 35 50 39 50 17 0 39
-61 39 -109 0 -45 4 -55 55 -114 68 -79 137 -222 162 -334 12 -55 23 -83 32
-83 17 0 10 41 -26 155 -37 115 -79 196 -136 261 -46 51 -52 62 -59 121 -14
122 -66 167 -108 96 -25 -41 -60 -83 -69 -83 -3 0 -6 38 -6 85 -1 104 -10 115
-109 139 -132 32 -193 86 -203 179 -7 68 11 90 66 81 20 -3 55 -1 76 5 36 10
61 23 184 98 62 39 191 26 265 -25 63 -43 85 -105 94 -259 10 -155 22 -187
129 -315 121 -145 221 -318 274 -470 12 -38 28 -68 35 -68 17 0 2 52 -52 175
-57 130 -137 258 -230 370 -111 134 -125 168 -134 323 -8 148 -25 197 -88 254
-22 20 -58 42 -79 48 -62 18 -154 22 -194 7z"/>
<path d="M1772 3910 c0 -14 2 -19 5 -12 2 6 2 18 0 25 -3 6 -5 1 -5 -13z"/>
<path d="M1870 3910 c0 -5 5 -10 10 -10 6 0 10 -11 10 -25 0 -26 14 -31 40
-15 12 7 11 13 -10 34 -24 26 -50 34 -50 16z"/>
<path d="M1205 3891 c-18 -9 -17 -10 8 -10 41 -1 98 -28 135 -63 43 -43 41
-28 -4 22 l-36 40 28 -10 c16 -6 67 -38 113 -71 94 -67 147 -86 206 -74 40 9
39 9 -26 15 -56 5 -74 12 -115 43 -138 104 -152 111 -223 114 -36 1 -75 -1
-86 -6z"/>
<path d="M3162 3825 c-34 -42 -62 -109 -74 -172 -13 -71 4 -118 53 -147 38
-22 124 -24 166 -3 49 26 85 146 69 231 -12 62 -26 39 -26 -42 0 -103 -27
-163 -81 -176 -49 -12 -106 0 -135 29 -18 18 -24 35 -24 69 0 52 31 136 67
184 17 22 22 37 15 44 -6 6 -16 0 -30 -17z"/>
<path d="M2980 3812 c0 -31 62 -42 96 -18 25 19 11 32 -19 19 -15 -7 -29 -8
-38 -2 -18 11 -39 12 -39 1z"/>
<path d="M1893 3698 c2 -59 7 -82 20 -95 17 -17 17 -17 7 13 -6 17 -15 60 -20
95 l-9 64 2 -77z"/>
<path d="M2041 3754 c0 -11 3 -14 6 -6 3 7 2 16 -1 19 -3 4 -6 -2 -5 -13z"/>
<path d="M2347 3698 c-4 -29 -20 -80 -36 -113 -39 -78 -50 -125 -17 -65 45 79
56 109 63 170 3 33 4 60 1 60 -3 0 -8 -24 -11 -52z"/>
<path d="M1805 3714 c-11 -9 -42 -27 -70 -41 -47 -24 -59 -26 -210 -27 -143
-1 -164 -3 -200 -23 -22 -11 -50 -32 -62 -45 -28 -30 -53 -100 -52 -147 l0
-36 13 47 c17 63 52 112 101 140 35 20 59 23 195 28 184 7 238 25 299 103 17
21 12 21 -14 1z"/>
<path d="M2052 3700 c0 -14 2 -19 5 -12 2 6 2 18 0 25 -3 6 -5 1 -5 -13z"/>
<path d="M2211 3704 c0 -11 3 -14 6 -6 3 7 2 16 -1 19 -3 4 -6 -2 -5 -13z"/>
<path d="M1866 3498 c-3 -34 -19 -128 -35 -208 -45 -222 -46 -266 -1 -70 36
156 61 340 48 340 -3 0 -8 -28 -12 -62z"/>
<path d="M1585 3510 c-27 -10 -79 -24 -114 -31 -108 -21 -187 -89 -212 -183
-12 -42 -6 -166 10 -221 10 -37 18 -21 24 51 5 61 33 121 69 148 17 12 52 22
95 26 l68 7 -63 2 c-80 1 -126 -18 -153 -64 -12 -19 -23 -35 -26 -35 -10 0 9
94 24 125 35 70 97 114 188 133 49 11 145 49 145 57 0 6 5 7 -55 -15z"/>
<path d="M2366 3403 c-11 -196 -15 -542 -6 -483 10 65 26 590 18 590 -3 0 -8
-48 -12 -107z"/>
<path d="M1967 3445 c3 -33 7 -62 9 -64 7 -8 2 74 -6 99 -5 16 -6 2 -3 -35z"/>
<path d="M1759 3418 c-21 -39 -121 -138 -180 -178 -142 -97 -183 -207 -123
-328 24 -48 93 -120 139 -145 19 -10 19 -9 2 14 -45 62 -70 145 -56 192 7 24
6 28 -4 18 -7 -7 -12 -36 -11 -67 0 -29 -2 -54 -3 -54 -2 0 -15 24 -28 53 -51
109 -26 182 104 292 100 85 195 204 178 222 -3 2 -11 -6 -18 -19z"/>
<path d="M2210 3406 c0 -13 -9 -35 -21 -50 -28 -35 -22 -70 13 -74 41 -5 54
27 39 95 -13 54 -31 72 -31 29z"/>
<path d="M2006 3412 c-10 -16 -18 -83 -12 -106 6 -26 28 -39 51 -30 25 10 28
42 5 74 -12 16 -22 39 -23 50 -1 20 -12 26 -21 12z"/>
<path d="M2235 3222 c-6 -22 -80 -52 -124 -52 -14 0 -46 12 -71 26 l-45 25 33
-33 c29 -30 37 -33 91 -32 38 1 69 7 85 17 26 18 51 55 43 64 -3 2 -8 -4 -12
-15z"/>
<path d="M1695 3132 c-74 -79 -85 -98 -83 -142 l0 -35 7 35 c10 49 25 73 65
103 31 24 83 94 75 101 -2 2 -31 -26 -64 -62z"/>
<path d="M2922 3163 c2 -11 14 -19 31 -21 30 -4 61 14 51 30 -3 5 -12 4 -20
-3 -11 -9 -21 -9 -40 0 -22 10 -25 9 -22 -6z"/>
<path d="M1781 3024 c0 -11 3 -14 6 -6 3 7 2 16 -1 19 -3 4 -6 -2 -5 -13z"/>
<path d="M1295 1511 c472 -14 2965 -23 2965 -11 0 7 -190 10 -583 10 -321 0
-1051 2 -1623 4 -640 3 -932 1 -759 -3z"/>
<path d="M1624 1266 c-3 -7 -4 -35 -2 -62 3 -47 4 -49 33 -50 29 -1 29 -1 2 3
-27 4 -27 6 -25 64 3 60 1 70 -8 45z"/>
<path d="M1658 1273 c6 -2 18 -2 25 0 6 3 1 5 -13 5 -14 0 -19 -2 -12 -5z"/>
<path d="M1742 1218 l2 -63 3 55 c3 30 10 58 16 62 8 5 6 8 -5 8 -16 0 -18 -9
-16 -62z"/>
<path d="M2088 1273 c7 -3 16 -2 19 1 4 3 -2 6 -13 5 -11 0 -14 -3 -6 -6z"/>
<path d="M2676 1264 c-8 -21 -8 -89 0 -81 6 6 14 97 8 97 -1 0 -5 -7 -8 -16z"/>
<path d="M2708 1273 c6 -2 18 -2 25 0 6 3 1 5 -13 5 -14 0 -19 -2 -12 -5z"/>
<path d="M2804 1271 c18 -7 66 -3 66 5 0 2 -19 4 -42 3 -31 0 -37 -3 -24 -8z"/>
<path d="M2910 1239 c0 -22 4 -38 8 -35 5 3 7 18 4 35 -4 27 -1 30 29 34 l34
4 -37 1 c-38 2 -38 2 -38 -39z"/>
<path d="M3020 1221 c0 -33 4 -62 8 -65 5 -3 6 8 4 25 -4 27 -2 29 29 30 31 2
32 2 6 6 -35 6 -47 31 -22 49 18 13 18 14 -3 14 -20 0 -22 -5 -22 -59z"/>
<path d="M3482 1218 l2 -63 3 57 c3 43 8 58 21 61 12 3 11 5 -5 6 -22 1 -23
-2 -21 -61z"/>
<path d="M1862 1245 c6 -14 13 -24 14 -22 6 6 -9 47 -17 47 -5 0 -3 -11 3 -25z"/>
<path d="M1993 1210 c0 -36 2 -50 4 -32 2 17 2 47 0 65 -2 17 -4 3 -4 -33z"/>
<path d="M2614 1234 c-8 -20 -13 -38 -11 -40 2 -2 11 14 20 36 19 50 12 53 -9
4z"/>
<path d="M3153 1215 c0 -33 2 -45 4 -27 2 18 2 45 0 60 -2 15 -4 0 -4 -33z"/>
<path d="M3213 1213 l-1 -58 8 50 c4 28 4 54 0 58 -4 4 -7 -18 -7 -50z"/>
<path d="M3288 1215 c-1 -30 0 -55 5 -55 4 0 7 25 7 55 0 71 -7 71 -12 0z"/>
<path d="M3547 1249 c4 -13 8 -18 11 -10 2 7 -1 18 -6 23 -8 8 -9 4 -5 -13z"/>
<path d="M3613 1215 c0 -33 2 -45 4 -27 2 18 2 45 0 60 -2 15 -4 0 -4 -33z"/>
<path d="M3672 1258 c-7 -7 -11 -28 -10 -47 l1 -36 4 35 c3 19 9 41 15 47 13
16 6 17 -10 1z"/>
<path d="M1808 1242 c-4 -14 -14 -22 -30 -23 -17 -1 -18 -3 -5 -6 9 -2 17 -10
17 -16 0 -7 7 1 15 17 9 16 14 34 12 40 -2 6 -6 0 -9 -12z"/>
<path d="M2046 1244 c-8 -22 -8 -52 2 -57 4 -3 7 13 7 34 1 43 0 46 -9 23z"/>
<path d="M2236 1244 c-15 -39 13 -95 47 -93 6 0 2 5 -10 11 -27 13 -37 40 -29
74 7 27 1 33 -8 8z"/>
<path d="M2370 1255 c0 -5 5 -17 10 -25 5 -8 10 -10 10 -5 0 6 -5 17 -10 25
-5 8 -10 11 -10 5z"/>
<path d="M3800 1246 c0 -8 4 -17 9 -20 5 -4 7 3 4 14 -6 23 -13 26 -13 6z"/>
<path d="M2823 1205 c0 -27 2 -38 4 -22 2 15 2 37 0 50 -2 12 -4 0 -4 -28z"/>
<path d="M3095 1240 c-3 -5 -1 -10 4 -10 6 0 11 5 11 10 0 6 -2 10 -4 10 -3 0
-8 -4 -11 -10z"/>
<path d="M3240 1231 c0 -6 4 -13 10 -16 6 -3 7 1 4 9 -7 18 -14 21 -14 7z"/>
<path d="M3752 1220 c0 -14 2 -19 5 -12 2 6 2 18 0 25 -3 6 -5 1 -5 -13z"/>
<path d="M2322 1205 c0 -16 2 -22 5 -12 2 9 2 23 0 30 -3 6 -5 -1 -5 -18z"/>
<path d="M1658 1213 c7 -3 16 -2 19 1 4 3 -2 6 -13 5 -11 0 -14 -3 -6 -6z"/>
<path d="M2561 1218 c-1 -4 3 -18 9 -32 10 -26 30 -36 30 -14 0 6 -3 8 -7 4
-4 -3 -12 6 -19 21 -7 16 -13 25 -13 21z"/>
<path d="M2708 1213 c7 -3 16 -2 19 1 4 3 -2 6 -13 5 -11 0 -14 -3 -6 -6z"/>
<path d="M2948 1213 c7 -3 16 -2 19 1 4 3 -2 6 -13 5 -11 0 -14 -3 -6 -6z"/>
<path d="M3356 1204 c-4 -9 -4 -19 -1 -22 2 -3 7 3 11 12 4 9 4 19 1 22 -2 3
-7 -3 -11 -12z"/>
<path d="M2182 1185 c0 -16 2 -22 5 -12 2 9 2 23 0 30 -3 6 -5 -1 -5 -18z"/>
<path d="M1567 1180 c-3 -11 -1 -20 4 -20 5 0 9 9 9 20 0 11 -2 20 -4 20 -2 0
-6 -9 -9 -20z"/>
<path d="M3867 1181 c-4 -17 -3 -21 5 -13 5 5 8 16 6 23 -3 8 -7 3 -11 -10z"/>
<path d="M1890 1170 c0 -5 5 -10 11 -10 5 0 7 5 4 10 -3 6 -8 10 -11 10 -2 0
-4 -4 -4 -10z"/>
<path d="M2675 1160 c3 -6 20 -10 37 -10 38 0 34 5 -10 13 -21 4 -31 3 -27 -3z"/>
<path d="M2919 1157 c5 -5 21 -7 37 -5 27 3 26 4 -8 9 -22 3 -34 1 -29 -4z"/>
<path d="M2157 1003 c-11 -11 -8 -20 7 -20 8 0 12 6 9 14 -6 15 -7 15 -16 6z"/>
<path d="M2312 948 c2 -47 7 -63 18 -64 9 0 10 1 3 3 -8 3 -13 24 -13 58 0 43
4 54 18 58 12 3 11 5 -6 6 -22 1 -23 -2 -20 -61z"/>
<path d="M2577 1003 c-4 -3 -7 -25 -6 -47 l1 -41 9 44 c9 45 8 56 -4 44z"/>
<path d="M3113 950 c0 -36 2 -50 4 -32 2 17 2 47 0 65 -2 17 -4 3 -4 -33z"/>
<path d="M2676 984 c-3 -8 -2 -12 4 -9 5 3 11 -16 13 -42 3 -48 3 -48 5 10 2
54 -9 75 -22 41z"/>
<path d="M2753 945 c0 -33 2 -45 4 -27 2 18 2 45 0 60 -2 15 -4 0 -4 -33z"/>
<path d="M2876 987 c3 -10 9 -15 12 -12 3 3 0 11 -7 18 -10 9 -11 8 -5 -6z"/>
<path d="M2943 945 c0 -33 2 -45 4 -27 2 18 2 45 0 60 -2 15 -4 0 -4 -33z"/>
<path d="M2991 948 c-1 -31 3 -59 7 -62 5 -3 7 18 5 47 -6 75 -11 81 -12 15z"/>
<path d="M2437 973 c-9 -9 -9 -51 1 -56 4 -3 7 10 7 29 0 19 0 34 -1 34 0 0
-4 -3 -7 -7z"/>
<path d="M2522 950 c0 -19 2 -27 5 -17 2 9 2 25 0 35 -3 9 -5 1 -5 -18z"/>
<path d="M2804 966 c-3 -8 -4 -23 -2 -33 3 -11 6 -6 9 15 6 34 2 42 -7 18z"/>
<path d="M3162 949 c-1 -24 4 -41 16 -50 15 -12 15 -12 5 1 -6 8 -13 31 -16
50 l-4 35 -1 -36z"/>
<path d="M3249 942 c-3 -20 -2 -29 4 -23 5 5 7 19 5 32 -3 20 -5 19 -9 -9z"/>
<path d="M2130 928 c0 -4 16 -8 35 -8 19 0 35 2 35 4 0 2 -16 6 -35 8 -19 2
-35 0 -35 -4z"/>
<path d="M2610 931 c0 -6 4 -13 10 -16 6 -3 7 1 4 9 -7 18 -14 21 -14 7z"/>
<path d="M2641 913 c-10 -26 -10 -27 4 -9 8 11 15 23 15 28 0 15 -7 8 -19 -19z"/>
<path d="M2876 903 c-6 -14 -5 -15 5 -6 7 7 10 15 7 18 -3 3 -9 -2 -12 -12z"/>
<path d="M3028 883 c6 -2 18 -2 25 0 6 3 1 5 -13 5 -14 0 -19 -2 -12 -5z"/>
</g>
</svg>
